<svg id="e04ef208-483b-4c84-8508-d8184acf2196" data-name="Calque 1" xmlns="http://www.w3.org/2000/svg" viewBox="0 0 574.56 92.08"><defs><style>.\35 c751a16-650e-480b-aa54-140f73b606ac{fill:#000100;}.ea11f396-9f91-41a4-be58-7cda650b2fe5{fill:#1d1d1b;}</style></defs><title>ennemi_black</title><path class="5c751a16-650e-480b-aa54-140f73b606ac" d="M0,0V92.08H92.08V0H0ZM28.59,9.5L46.15,27.05,64.26,8.94l8.83,8.84L62.61,28.25a23.28,23.28,0,0,1-32.93,0l-9.92-9.92ZM54.34,46.64a8.3,8.3,0,1,1-8.3-8.3h0a8.3,8.3,0,0,1,8.3,8.3h0ZM8.45,64.53L26.57,46.41,9,28.86,17.84,20l9.92,9.92a23.28,23.28,0,0,1,0,32.93L17.29,73.36Zm55,18.78L45.91,65.76,27.79,83.87,19,75,29.44,64.56a23.28,23.28,0,0,1,32.93,0l9.92,9.92ZM83,64l-8.83,8.83-9.92-9.92a23.28,23.28,0,0,1,0-32.93L74.77,19.45l8.83,8.83L65.49,46.4Z"/><path class="ea11f396-9f91-41a4-be58-7cda650b2fe5" d="M201.17,61.32L189.8,67.89a10.66,10.66,0,0,1-5.57,1.49H154.65a17.87,17.87,0,0,1,0-35.73h54v7.12l-1.63.94-4.51,2.61-11.38,6.57a10.67,10.67,0,0,1-5.57,1.49H144.88a9.86,9.86,0,0,0,9.77,8.94h40.09a10.67,10.67,0,0,0,5.57-1.49L208.68,55v2ZM144.89,50.66h40.25a10.67,10.67,0,0,0,5.57-1.49L196.23,46l7.37-4.26h-49A9.86,9.86,0,0,0,144.89,50.66Z"/><path class="ea11f396-9f91-41a4-be58-7cda650b2fe5" d="M237.4,41.72l11.38-6.57a10.67,10.67,0,0,1,5.57-1.49h15.2a17.92,17.92,0,0,1,17.87,17.87V69.39h-8.06V51.52a9.85,9.85,0,0,0-9.8-9.8H243.84a10.67,10.67,0,0,0-5.57,1.49l-9.12,5.27a10.88,10.88,0,0,0-5.57,9.65V69.39h-8.06V33.65h8.06v16Z"/><path class="ea11f396-9f91-41a4-be58-7cda650b2fe5" d="M317.33,41.72l11.38-6.57a10.67,10.67,0,0,1,5.57-1.49h15.2a17.92,17.92,0,0,1,17.87,17.87V69.39h-8.06V51.52a9.85,9.85,0,0,0-9.8-9.8H323.77a10.67,10.67,0,0,0-5.57,1.49l-9.12,5.27a10.88,10.88,0,0,0-5.57,9.65V69.39h-8.06V33.65h8.06v16Z"/><path class="ea11f396-9f91-41a4-be58-7cda650b2fe5" d="M437.88,61.32L426.5,67.89a10.66,10.66,0,0,1-5.57,1.49H391.35a17.87,17.87,0,0,1,0-35.73h54v7.12l-1.63.94-4.51,2.61-11.38,6.57a10.67,10.67,0,0,1-5.57,1.49H381.59a9.86,9.86,0,0,0,9.76,8.94h40.09A10.67,10.67,0,0,0,437,59.83L445.39,55v2ZM381.59,50.66h40.25a10.67,10.67,0,0,0,5.57-1.49L432.93,46l7.37-4.26h-49A9.86,9.86,0,0,0,381.59,50.66Z"/><path class="ea11f396-9f91-41a4-be58-7cda650b2fe5" d="M474.1,41.72l11.38-6.57A10.67,10.67,0,0,1,491,33.65h0.47a17.93,17.93,0,0,1,17.77,16h0.09l13.83-8,11.38-6.57a10.67,10.67,0,0,1,5.57-1.49h0.47a17.92,17.92,0,0,1,17.87,17.87V69.39h-8.06V51.52a9.85,9.85,0,0,0-9.8-9.8h-11a10.67,10.67,0,0,0-5.57,1.49L515,48.48a10.88,10.88,0,0,0-5.57,9.65V69.39h-8.06V51.52a9.85,9.85,0,0,0-9.8-9.8h-11A10.67,10.67,0,0,0,475,43.21l-9.13,5.27a10.88,10.88,0,0,0-5.57,9.65V69.39h-8.06V33.65h8.06v16Z"/><path class="ea11f396-9f91-41a4-be58-7cda650b2fe5" d="M574.56,16.68v8.06H566.5V16.68h8.06Zm0,17V69.41H566.5V33.68h8.06Z"/></svg>